<svg width="22" height="22" viewBox="0 0 22 22" fill="none" xmlns="http://www.w3.org/2000/svg">
<path fill-rule="evenodd" clip-rule="evenodd" d="M18.1037 8.98415C18.4841 8.98415 18.7912 9.29215 18.7912 9.67165C18.7912 13.8812 15.5603 17.3465 11.4581 17.698L11.4578 19.9375C11.4578 20.317 11.1498 20.625 10.7703 20.625C10.3908 20.625 10.0828 20.317 10.0828 19.9375L10.0835 17.6981C5.98089 17.347 2.74951 13.8815 2.74951 9.67165C2.74951 9.29215 3.05751 8.98415 3.43701 8.98415C3.81743 8.98415 4.12451 9.29215 4.12451 9.67165C4.12451 13.3548 7.10551 16.3523 10.7703 16.3523C14.4352 16.3523 17.4162 13.3548 17.4162 9.67165C17.4162 9.29215 17.7242 8.98415 18.1037 8.98415ZM10.7703 0.916656C13.2023 0.916656 15.1813 2.90307 15.1813 5.34507V9.64241C15.1813 12.0835 13.2023 14.0699 10.7703 14.0699C8.33843 14.0699 6.35934 12.0835 6.35934 9.64241V5.34507C6.35934 2.90307 8.33843 0.916656 10.7703 0.916656ZM10.7703 2.29166C9.09651 2.29166 7.73434 3.66116 7.73434 5.34507V9.64241C7.73434 11.3245 9.09651 12.6949 10.7703 12.6949C12.4442 12.6949 13.8063 11.3245 13.8063 9.64241V5.34507C13.8063 3.66116 12.4442 2.29166 10.7703 2.29166Z" fill="white"/>
</svg>
