<svg width="25" height="24" viewBox="0 0 25 24" fill="none" xmlns="http://www.w3.org/2000/svg">
<g opacity="0.3">
<path fill-rule="evenodd" clip-rule="evenodd" d="M15.9689 2.00753C19.1247 2.00753 21.2447 4.16864 21.2447 7.3847V16.6153C21.2447 19.8595 19.19 21.9694 16.0101 21.9895L8.28809 21.9925C5.13225 21.9925 3.0113 19.8314 3.0113 16.6153V7.3847C3.0113 4.13953 5.066 2.03062 8.24593 2.01155L15.9679 2.00753H15.9689ZM15.9689 3.51318L8.25095 3.51719C5.91418 3.53125 4.51694 4.97667 4.51694 7.3847V16.6153C4.51694 19.0394 5.92723 20.4868 8.28709 20.4868L16.005 20.4838C18.3418 20.4698 19.739 19.0224 19.739 16.6153V7.3847C19.739 4.96061 18.3298 3.51318 15.9689 3.51318ZM15.7753 15.532C16.1908 15.532 16.5281 15.8692 16.5281 16.2848C16.5281 16.7003 16.1908 17.0376 15.7753 17.0376H8.52809C8.11253 17.0376 7.77527 16.7003 7.77527 16.2848C7.77527 15.8692 8.11253 15.532 8.52809 15.532H15.7753ZM15.7753 11.3297C16.1908 11.3297 16.5281 11.667 16.5281 12.0825C16.5281 12.4981 16.1908 12.8353 15.7753 12.8353H8.52809C8.11253 12.8353 7.77527 12.4981 7.77527 12.0825C7.77527 11.667 8.11253 11.3297 8.52809 11.3297H15.7753ZM11.2932 7.13717C11.7087 7.13717 12.046 7.47444 12.046 7.89C12.046 8.30556 11.7087 8.64282 11.2932 8.64282H8.52779C8.11223 8.64282 7.77496 8.30556 7.77496 7.89C7.77496 7.47444 8.11223 7.13717 8.52779 7.13717H11.2932Z" fill="black"/>
</g>
</svg>
