<svg width="12" height="12" viewBox="0 0 12 12" fill="none" xmlns="http://www.w3.org/2000/svg">
<path d="M4.26581 1.46837C5.35824 0.833622 6.70101 0.844716 7.78319 1.49743C8.85473 2.16344 9.50598 3.35207 9.49996 4.63071C9.47498 5.90095 8.77665 7.09499 7.90374 8.01803C7.39992 8.55318 6.83631 9.0264 6.22442 9.428C6.1614 9.46444 6.09237 9.48884 6.02074 9.49998C5.9518 9.49705 5.88466 9.47668 5.82538 9.44071C4.89121 8.83727 4.07167 8.067 3.40617 7.16697C2.84929 6.41567 2.53292 5.50799 2.5 4.56719L2.50249 4.43033C2.54796 3.20231 3.2124 2.08045 4.26581 1.46837ZM6.45363 3.51737C6.00953 3.3286 5.49752 3.43116 5.15666 3.77716C4.8158 4.12316 4.71332 4.64435 4.89708 5.09737C5.08084 5.5504 5.51459 5.84591 5.9958 5.84591C6.31105 5.84817 6.61409 5.7219 6.8374 5.49522C7.06072 5.26855 7.18574 4.9603 7.18463 4.63917C7.18631 4.149 6.89773 3.70614 6.45363 3.51737Z" fill="#585CE5"/>
</svg>
