<svg width="18" height="18" viewBox="0 0 18 18" fill="none" xmlns="http://www.w3.org/2000/svg">
<path d="M16.6039 16.0098L16.6038 16.0097L14.3232 13.7339C15.4945 12.4238 16.2076 10.6953 16.2076 8.80351C16.2076 4.72078 12.8868 1.40001 8.8041 1.40001C4.72138 1.40001 1.39985 4.72077 1.39985 8.80351C1.39985 12.8862 4.72137 16.2078 8.8041 16.2078C10.5181 16.2078 12.098 15.6222 13.3541 14.6408L15.6675 16.9478L15.6677 16.948C15.7973 17.0768 15.967 17.1413 16.1356 17.1413C16.3047 17.1413 16.4753 17.077 16.6046 16.9462C16.8636 16.6873 16.8625 16.2685 16.6039 16.0098ZM2.72485 8.80351C2.72485 5.4515 5.45206 2.72501 8.8041 2.72501C12.1554 2.72501 14.8826 5.45149 14.8826 8.80351C14.8826 12.1555 12.1554 14.8828 8.8041 14.8828C5.45208 14.8828 2.72485 12.1555 2.72485 8.80351Z" fill="#585CE5" stroke="#585CE5" stroke-width="0.2"/>
</svg>
