<svg width="26" height="26" viewBox="0 0 26 26" fill="none" xmlns="http://www.w3.org/2000/svg">
<path fill-rule="evenodd" clip-rule="evenodd" d="M14.5967 4.69665C14.6303 4.71723 14.6639 4.7389 14.6942 4.76382C16.1586 5.91412 16.2661 8.05253 16.2713 12.3229L16.2715 12.7296C16.2715 17.2731 16.2044 19.5102 14.6942 20.6975C14.6639 20.7213 14.6303 20.7441 14.5956 20.7636C14.1471 21.0192 13.691 21.1276 13.236 21.1276C11.7291 21.1276 10.2352 19.9413 9.07171 19.0183C8.54629 18.6012 7.75221 17.9707 7.47813 17.9426C7.16721 17.9187 6.89854 17.909 6.66129 17.9025C5.79679 17.8711 5.11321 17.8483 4.30938 17.1853C3.34218 16.3887 3.25335 14.8103 3.25 13.4191L3.25096 12.9636L3.25204 12.7296L3.25096 12.4956L3.25 12.0401C3.25335 10.649 3.34218 9.07148 4.30938 8.2749C5.11429 7.6119 5.79896 7.58807 6.66563 7.55882C6.90179 7.55015 7.16938 7.54148 7.48029 7.51873C7.75221 7.48948 8.54629 6.85898 9.07171 6.4419C10.5862 5.23832 12.663 3.5949 14.5967 4.69665ZM13.2252 5.96523C12.2849 5.96523 11.0824 6.91965 10.0814 7.71482C9.11829 8.47857 8.35779 9.08307 7.59946 9.1394C7.26363 9.16323 6.97546 9.17407 6.72196 9.18273C5.91271 9.20982 5.70796 9.22823 5.34288 9.5294C4.9239 9.87349 4.87733 11.1465 4.87514 12.1017L4.87596 12.488L4.87704 12.7274V12.7317L4.87596 12.9712L4.87514 13.3578C4.87733 14.3137 4.9239 15.5867 5.34288 15.9308C5.70688 16.232 5.91163 16.2493 6.71871 16.2786C6.97329 16.2861 7.26254 16.297 7.59946 16.3219C8.35779 16.3772 9.11829 16.9817 10.0814 17.7454C11.2763 18.6933 12.7572 19.8687 13.7376 19.3802C14.5323 18.6914 14.6401 16.9018 14.6462 13.1149L14.6465 12.7296C14.6465 8.6779 14.5588 6.79182 13.7376 6.07898C13.5784 5.9999 13.4061 5.96523 13.2252 5.96523ZM20.5632 8.33308C22.1178 11.0501 22.1178 14.4192 20.5632 17.1276C20.4126 17.3897 20.1396 17.536 19.8579 17.536C19.7203 17.536 19.5817 17.5013 19.4538 17.4277C19.0649 17.2045 18.9306 16.7072 19.1538 16.3194C20.4223 14.1083 20.4223 11.3588 19.1538 9.14124C18.9306 8.75124 19.066 8.25508 19.4549 8.03191C19.8449 7.81308 20.34 7.94416 20.5632 8.33308Z" fill="#D2D2D2"/>
</svg>
