<svg width="22" height="22" viewBox="0 0 22 22" fill="none" xmlns="http://www.w3.org/2000/svg">
<path fill-rule="evenodd" clip-rule="evenodd" d="M7.4151 4.58463L7.84625 4.58518C7.91995 4.58528 7.99447 4.58539 8.06968 4.58551L8.52789 4.58625C9.53328 4.58797 10.6042 4.59032 11.4203 4.59202L11.7778 4.59275C11.834 4.59286 11.8883 4.59297 11.9408 4.59307C14.0033 4.44824 15.865 5.97907 16.0309 8.03332C16.0325 8.05439 16.0338 8.17396 16.035 8.39146L17.9378 6.83313C18.4914 6.37938 19.2367 6.29046 19.8829 6.59571C20.5292 6.9028 20.9307 7.53713 20.9298 8.25213L20.9188 14.9887C20.9179 15.7037 20.5154 16.338 19.8701 16.6424C19.6171 16.7625 19.3494 16.8202 19.0836 16.8202C18.6702 16.8202 18.2623 16.6781 17.9259 16.4022L16.0392 14.8367C16.0392 14.8633 16.0392 14.8899 16.0392 14.9166C16.0777 15.8846 15.733 16.8168 15.0675 17.541C14.3681 18.3027 13.4038 18.7455 12.3533 18.7886C12.3354 18.7898 12.235 18.7907 12.0703 18.7913L11.7081 18.7919C11.5669 18.792 11.4064 18.792 11.2306 18.7919L10.4551 18.7912C10.3853 18.7911 10.3143 18.791 10.2423 18.7909L9.80011 18.7902C8.74653 18.7884 7.55973 18.7856 6.63962 18.7836L6.26278 18.7828C6.14339 18.7826 6.0306 18.7824 5.92559 18.7822C5.82843 18.7895 5.73126 18.7932 5.63409 18.7932C3.69626 18.7941 2.00593 17.3091 1.84643 15.3612L1.84628 15.3592L1.84543 15.341C1.84536 15.339 1.8453 15.3368 1.84523 15.3344L1.8446 15.3056C1.84453 15.3015 1.84446 15.2971 1.84438 15.2923L1.84369 15.2389C1.84361 15.2317 1.84353 15.2241 1.84345 15.216L1.84272 15.1293C1.84263 15.1181 1.84255 15.1063 1.84247 15.0939L1.84197 15.012C1.84188 14.9971 1.8418 14.9815 1.84172 14.9652L1.84097 14.7993C1.84089 14.7786 1.84081 14.7571 1.84073 14.7349L1.84001 14.5116C1.83994 14.4842 1.83986 14.4559 1.83978 14.4266L1.83912 14.1373C1.83905 14.1022 1.83898 14.066 1.83891 14.0288L1.83814 13.5298C1.83808 13.4836 1.83802 13.4363 1.83797 13.3878L1.83726 12.5659C1.83722 12.5045 1.83718 12.4418 1.83715 12.3777L1.83713 8.78631C1.83717 8.67739 1.83722 8.56665 1.83726 8.45407C1.79326 7.50899 2.13609 6.57032 2.80526 5.83974C3.50376 5.07707 4.46718 4.63249 5.51859 4.58757C5.53275 4.58655 5.59975 4.58578 5.71025 4.58523L5.90748 4.58454C5.9454 4.58445 5.98575 4.58438 6.02838 4.58431L7.20914 4.58441C7.27658 4.58448 7.34528 4.58455 7.4151 4.58463ZM11.9903 5.96624C10.8329 5.96456 9.4178 5.96253 8.21017 5.96122L7.57484 5.96057C7.47331 5.96048 7.3742 5.96039 7.27785 5.96031L5.6837 5.96036C5.62371 5.96064 5.5849 5.96104 5.56993 5.96165C4.89343 5.99007 4.26918 6.27699 3.81909 6.76832C3.39926 7.22757 3.18293 7.81424 3.21134 8.42291L3.2121 11.964C3.21214 12.0421 3.21218 12.1198 3.21223 12.1968L3.21307 13.2913C3.21314 13.3594 3.21321 13.4264 3.21328 13.4921L3.21375 13.8707C3.21384 13.9311 3.21392 13.99 3.21401 14.0474L3.21491 14.5194C3.21588 14.9444 3.21712 15.2201 3.21868 15.2732C3.32318 16.5427 4.51301 17.5135 5.87518 17.409C6.01922 17.4092 6.16724 17.4094 6.31832 17.4097L6.77989 17.4104C7.17074 17.411 7.57522 17.4117 7.97942 17.4124L8.46343 17.4132C8.70448 17.4136 8.94343 17.414 9.17726 17.4144L9.63723 17.4151C9.71245 17.4152 9.78689 17.4153 9.86043 17.4154L10.2899 17.4159C10.3594 17.416 10.4278 17.4161 10.4949 17.4162L12.1132 17.4161C12.2191 17.4158 12.2856 17.4152 12.3056 17.4145C12.9793 17.387 13.6045 17.101 14.0546 16.6106C14.4753 16.1532 14.6917 15.5665 14.6651 14.9606L14.6643 14.9454L14.6641 10.5123C14.6641 10.4403 14.664 10.3692 14.664 10.2992L14.6633 9.51464C14.6632 9.45447 14.6632 9.39573 14.6631 9.33853L14.6623 8.86792C14.662 8.7267 14.6617 8.60203 14.6613 8.49666L14.6605 8.31242C14.66 8.20782 14.6594 8.14075 14.6587 8.11766C14.5551 6.84166 13.3598 5.85899 11.9903 5.96624ZM18.8086 7.89738L16.0388 10.1572C16.0389 10.2699 16.039 10.3869 16.0391 10.5085L16.0397 12.8071L18.7976 15.3398C19.0002 15.5048 19.2037 15.437 19.2825 15.3985C19.3614 15.3618 19.5438 15.2472 19.5438 14.9869L19.5548 8.2503C19.5557 7.98996 19.3724 7.87538 19.2935 7.8378C19.2156 7.80113 19.0094 7.73238 18.8086 7.89738Z" fill="white"/>
</svg>
