<svg width="26" height="26" viewBox="0 0 26 26" fill="none" xmlns="http://www.w3.org/2000/svg">
<path fill-rule="evenodd" clip-rule="evenodd" d="M17.6427 2.16667H21.1815C22.6456 2.16667 23.8334 3.36473 23.8334 4.8427V8.41112C23.8334 9.88797 22.6456 11.0871 21.1815 11.0871H17.6427C16.1774 11.0871 14.9897 9.88797 14.9897 8.41112V4.8427C14.9897 3.36473 16.1774 2.16667 17.6427 2.16667Z" stroke="#9AA5B6" stroke-width="1.5" stroke-linecap="round" stroke-linejoin="round"/>
<path fill-rule="evenodd" clip-rule="evenodd" d="M4.81967 2.16667H8.35737C9.82262 2.16667 11.0104 3.36473 11.0104 4.8427V8.41112C11.0104 9.88797 9.82262 11.0871 8.35737 11.0871H4.81967C3.35442 11.0871 2.16667 9.88797 2.16667 8.41112V4.8427C2.16667 3.36473 3.35442 2.16667 4.81967 2.16667Z" stroke="#9AA5B6" stroke-width="1.5" stroke-linecap="round" stroke-linejoin="round"/>
<path fill-rule="evenodd" clip-rule="evenodd" d="M4.81967 14.9129H8.35737C9.82262 14.9129 11.0104 16.1109 11.0104 17.59V21.1573C11.0104 22.6353 9.82262 23.8333 8.35737 23.8333H4.81967C3.35442 23.8333 2.16667 22.6353 2.16667 21.1573V17.59C2.16667 16.1109 3.35442 14.9129 4.81967 14.9129Z" stroke="#9AA5B6" stroke-width="1.5" stroke-linecap="round" stroke-linejoin="round"/>
<path fill-rule="evenodd" clip-rule="evenodd" d="M17.6427 14.9129H21.1815C22.6456 14.9129 23.8334 16.1109 23.8334 17.59V21.1573C23.8334 22.6353 22.6456 23.8333 21.1815 23.8333H17.6427C16.1774 23.8333 14.9897 22.6353 14.9897 21.1573V17.59C14.9897 16.1109 16.1774 14.9129 17.6427 14.9129Z" stroke="#9AA5B6" stroke-width="1.5" stroke-linecap="round" stroke-linejoin="round"/>
</svg>
