<svg width="76" height="12" viewBox="0 0 76 12" fill="none" xmlns="http://www.w3.org/2000/svg">
<path d="M8.95922 7.16C8.82972 7.2855 8.77022 7.467 8.79972 7.645L9.24422 10.105C9.28172 10.3135 9.19372 10.5245 9.01922 10.645C8.84822 10.77 8.62072 10.785 8.43422 10.685L6.21972 9.53C6.14272 9.489 6.05722 9.467 5.96972 9.4645H5.83422C5.78722 9.4715 5.74122 9.4865 5.69922 9.5095L3.48422 10.67C3.37472 10.725 3.25072 10.7445 3.12922 10.725C2.83322 10.669 2.63572 10.387 2.68422 10.0895L3.12922 7.6295C3.15872 7.45 3.09922 7.2675 2.96972 7.14L1.16422 5.39C1.01322 5.2435 0.960724 5.0235 1.02972 4.825C1.09672 4.627 1.26772 4.4825 1.47422 4.45L3.95922 4.0895C4.14822 4.07 4.31422 3.955 4.39922 3.785L5.49422 1.54C5.52022 1.49 5.55372 1.444 5.59422 1.405L5.63922 1.37C5.66272 1.344 5.68972 1.3225 5.71972 1.305L5.77422 1.285L5.85922 1.25H6.06972C6.25772 1.2695 6.42322 1.382 6.50972 1.55L7.61922 3.785C7.69922 3.9485 7.85472 4.062 8.03422 4.0895L10.5192 4.45C10.7292 4.48 10.9047 4.625 10.9742 4.825C11.0397 5.0255 10.9832 5.2455 10.8292 5.39L8.95922 7.16Z" fill="#FFC000"/>
<path d="M24.9592 7.16C24.8297 7.2855 24.7702 7.467 24.7997 7.645L25.2442 10.105C25.2817 10.3135 25.1937 10.5245 25.0192 10.645C24.8482 10.77 24.6207 10.785 24.4342 10.685L22.2197 9.53C22.1427 9.489 22.0572 9.467 21.9697 9.4645H21.8342C21.7872 9.4715 21.7412 9.4865 21.6992 9.5095L19.4842 10.67C19.3747 10.725 19.2507 10.7445 19.1292 10.725C18.8332 10.669 18.6357 10.387 18.6842 10.0895L19.1292 7.6295C19.1587 7.45 19.0992 7.2675 18.9697 7.14L17.1642 5.39C17.0132 5.2435 16.9607 5.0235 17.0297 4.825C17.0967 4.627 17.2677 4.4825 17.4742 4.45L19.9592 4.0895C20.1482 4.07 20.3142 3.955 20.3992 3.785L21.4942 1.54C21.5202 1.49 21.5537 1.444 21.5942 1.405L21.6392 1.37C21.6627 1.344 21.6897 1.3225 21.7197 1.305L21.7742 1.285L21.8592 1.25H22.0697C22.2577 1.2695 22.4232 1.382 22.5097 1.55L23.6192 3.785C23.6992 3.9485 23.8547 4.062 24.0342 4.0895L26.5192 4.45C26.7292 4.48 26.9047 4.625 26.9742 4.825C27.0397 5.0255 26.9832 5.2455 26.8292 5.39L24.9592 7.16Z" fill="#FFC000"/>
<path d="M40.9592 7.16C40.8297 7.2855 40.7702 7.467 40.7997 7.645L41.2442 10.105C41.2817 10.3135 41.1937 10.5245 41.0192 10.645C40.8482 10.77 40.6207 10.785 40.4342 10.685L38.2197 9.53C38.1427 9.489 38.0572 9.467 37.9697 9.4645H37.8342C37.7872 9.4715 37.7412 9.4865 37.6992 9.5095L35.4842 10.67C35.3747 10.725 35.2507 10.7445 35.1292 10.725C34.8332 10.669 34.6357 10.387 34.6842 10.0895L35.1292 7.6295C35.1587 7.45 35.0992 7.2675 34.9697 7.14L33.1642 5.39C33.0132 5.2435 32.9607 5.0235 33.0297 4.825C33.0967 4.627 33.2677 4.4825 33.4742 4.45L35.9592 4.0895C36.1482 4.07 36.3142 3.955 36.3992 3.785L37.4942 1.54C37.5202 1.49 37.5537 1.444 37.5942 1.405L37.6392 1.37C37.6627 1.344 37.6897 1.3225 37.7197 1.305L37.7742 1.285L37.8592 1.25H38.0697C38.2577 1.2695 38.4232 1.382 38.5097 1.55L39.6192 3.785C39.6992 3.9485 39.8547 4.062 40.0342 4.0895L42.5192 4.45C42.7292 4.48 42.9047 4.625 42.9742 4.825C43.0397 5.0255 42.9832 5.2455 42.8292 5.39L40.9592 7.16Z" fill="#FFC000"/>
<path d="M56.9592 7.16C56.8297 7.2855 56.7702 7.467 56.7997 7.645L57.2442 10.105C57.2817 10.3135 57.1937 10.5245 57.0192 10.645C56.8482 10.77 56.6207 10.785 56.4342 10.685L54.2197 9.53C54.1427 9.489 54.0572 9.467 53.9697 9.4645H53.8342C53.7872 9.4715 53.7412 9.4865 53.6992 9.5095L51.4842 10.67C51.3747 10.725 51.2507 10.7445 51.1292 10.725C50.8332 10.669 50.6357 10.387 50.6842 10.0895L51.1292 7.6295C51.1587 7.45 51.0992 7.2675 50.9697 7.14L49.1642 5.39C49.0132 5.2435 48.9607 5.0235 49.0297 4.825C49.0967 4.627 49.2677 4.4825 49.4742 4.45L51.9592 4.0895C52.1482 4.07 52.3142 3.955 52.3992 3.785L53.4942 1.54C53.5202 1.49 53.5537 1.444 53.5942 1.405L53.6392 1.37C53.6627 1.344 53.6897 1.3225 53.7197 1.305L53.7742 1.285L53.8592 1.25H54.0697C54.2577 1.2695 54.4232 1.382 54.5097 1.55L55.6192 3.785C55.6992 3.9485 55.8547 4.062 56.0342 4.0895L58.5192 4.45C58.7292 4.48 58.9047 4.625 58.9742 4.825C59.0397 5.0255 58.9832 5.2455 58.8292 5.39L56.9592 7.16Z" fill="#FFC000"/>
<g opacity="0.4">
<path d="M72.9592 7.16C72.8297 7.2855 72.7702 7.467 72.7997 7.645L73.2442 10.105C73.2817 10.3135 73.1937 10.5245 73.0192 10.645C72.8482 10.77 72.6207 10.785 72.4342 10.685L70.2197 9.53C70.1427 9.489 70.0572 9.467 69.9697 9.4645H69.8342C69.7872 9.4715 69.7412 9.4865 69.6992 9.5095L67.4842 10.67C67.3747 10.725 67.2507 10.7445 67.1292 10.725C66.8332 10.669 66.6357 10.387 66.6842 10.0895L67.1292 7.6295C67.1587 7.45 67.0992 7.2675 66.9697 7.14L65.1642 5.39C65.0132 5.2435 64.9607 5.0235 65.0297 4.825C65.0967 4.627 65.2677 4.4825 65.4742 4.45L67.9592 4.0895C68.1482 4.07 68.3142 3.955 68.3992 3.785L69.4942 1.54C69.5202 1.49 69.5537 1.444 69.5942 1.405L69.6392 1.37C69.6627 1.344 69.6897 1.3225 69.7197 1.305L69.7742 1.285L69.8592 1.25H70.0697C70.2577 1.2695 70.4232 1.382 70.5097 1.55L71.6192 3.785C71.6992 3.9485 71.8547 4.062 72.0342 4.0895L74.5192 4.45C74.7292 4.48 74.9047 4.625 74.9742 4.825C75.0397 5.0255 74.9832 5.2455 74.8292 5.39L72.9592 7.16Z" fill="#FFC000"/>
</g>
<mask id="mask0_2_182" style="mask-type:alpha" maskUnits="userSpaceOnUse" x="62" y="-3" width="8" height="20">
<rect x="62" y="-3" width="8" height="20" fill="#C4C4C4"/>
</mask>
<g mask="url(#mask0_2_182)">
<path d="M72.9592 7.16C72.8297 7.2855 72.7702 7.467 72.7997 7.645L73.2442 10.105C73.2817 10.3135 73.1937 10.5245 73.0192 10.645C72.8482 10.77 72.6207 10.785 72.4342 10.685L70.2197 9.53C70.1427 9.489 70.0572 9.467 69.9697 9.4645H69.8342C69.7872 9.4715 69.7412 9.4865 69.6992 9.5095L67.4842 10.67C67.3747 10.725 67.2507 10.7445 67.1292 10.725C66.8332 10.669 66.6357 10.387 66.6842 10.0895L67.1292 7.6295C67.1587 7.45 67.0992 7.2675 66.9697 7.14L65.1642 5.39C65.0132 5.2435 64.9607 5.0235 65.0297 4.825C65.0967 4.627 65.2677 4.4825 65.4742 4.45L67.9592 4.0895C68.1482 4.07 68.3142 3.955 68.3992 3.785L69.4942 1.54C69.5202 1.49 69.5537 1.444 69.5942 1.405L69.6392 1.37C69.6627 1.344 69.6897 1.3225 69.7197 1.305L69.7742 1.285L69.8592 1.25H70.0697C70.2577 1.2695 70.4232 1.382 70.5097 1.55L71.6192 3.785C71.6992 3.9485 71.8547 4.062 72.0342 4.0895L74.5192 4.45C74.7292 4.48 74.9047 4.625 74.9742 4.825C75.0397 5.0255 74.9832 5.2455 74.8292 5.39L72.9592 7.16Z" fill="#FFC000"/>
</g>
</svg>
