<svg width="24" height="24" viewBox="0 0 24 24" fill="none" xmlns="http://www.w3.org/2000/svg">
<circle cx="12" cy="12" r="10.5" fill="#105DFB"/>
<path fill-rule="evenodd" clip-rule="evenodd" d="M5.15696 16.4696V7.3076H9.39241C10.7528 7.3076 11.8557 8.41045 11.8557 9.77089C11.8557 10.6354 11.5899 11.1709 10.6152 11.7203C11.7815 12.2517 12.1055 12.9882 12.1055 14.0156C12.1055 15.4054 10.8708 16.4696 9.481 16.4696H5.15696ZM6.94922 8.82422V11.0273H9.04688C9.04688 11.0273 10.0664 11.0273 10.0664 9.92578C10.0664 8.82422 9.04688 8.82422 9.04688 8.82422H6.94922ZM6.94922 14.918V12.5391H9.19922C9.5625 12.5391 10.3242 12.7266 10.3242 13.8516C10.3242 14.6859 9.57422 14.9102 9.19922 14.918H6.94922Z" fill="white"/>
<path fill-rule="evenodd" clip-rule="evenodd" d="M15.9375 9.83203C14.6484 9.83203 12.7383 10.7578 12.7383 13.2188C12.7383 14.7172 13.5586 16.6406 16.0195 16.6406C17.9883 16.6406 18.8945 15.1953 19.1016 14.4727H17.25C17.1562 14.8008 16.793 15.1641 16.0195 15.1641C14.8945 15.1641 14.4961 14.2031 14.4375 13.7227H19.1016V13.2188C19.1016 10.7578 17.2266 9.83203 15.9375 9.83203ZM15.9375 11.2383C14.8875 11.2383 14.5 12.1055 14.4375 12.5391H17.25C17.25 12.1055 16.9875 11.2383 15.9375 11.2383Z" fill="white"/>
<path d="M13.6992 7.82812V8.96484H18.1172V7.82812H13.6992Z" fill="white"/>
</svg>
