<svg width="22" height="22" viewBox="0 0 22 22" fill="none" xmlns="http://www.w3.org/2000/svg">
<path fill-rule="evenodd" clip-rule="evenodd" d="M10.7694 0.916931C13.4029 0.916931 15.8779 1.94085 17.7369 3.80076C21.5796 7.64343 21.5796 13.8951 17.7369 17.7378C15.8532 19.6224 13.3168 20.6198 10.7474 20.6198C9.34669 20.6198 7.93686 20.3237 6.61778 19.7132C6.22911 19.5573 5.86519 19.4107 5.60394 19.4107C5.30328 19.4125 4.89903 19.5518 4.50853 19.6866C3.70736 19.9616 2.71003 20.3044 1.97211 19.5693C1.23694 18.8332 1.57611 17.8386 1.84928 17.0383C1.98403 16.6442 2.12244 16.2372 2.12244 15.9292C2.12244 15.6762 2.00053 15.3535 1.81353 14.8888C0.0966098 11.1808 0.890443 6.7121 3.80269 3.80168C5.66169 1.94176 8.13578 0.916931 10.7694 0.916931ZM10.7703 2.29193C8.50336 2.29193 6.37394 3.17376 4.77436 4.77426C2.26819 7.2786 1.58619 11.124 3.07578 14.3443C3.29028 14.875 3.49744 15.392 3.49744 15.9292C3.49744 16.4654 3.31319 17.0053 3.15094 17.482C3.01711 17.8743 2.81453 18.4665 2.94469 18.5967C3.07211 18.7287 3.66794 18.5206 4.06119 18.3858C4.53328 18.2245 5.06861 18.0393 5.59936 18.0357C6.13103 18.0357 6.63244 18.2373 7.16319 18.4509C10.4146 19.9543 14.26 19.2704 16.7653 16.7661C20.0708 13.4588 20.0708 8.07885 16.7653 4.77335C15.1648 3.17285 13.0363 2.29193 10.7703 2.29193ZM14.3883 10.2327C14.8943 10.2327 15.3049 10.6425 15.3049 11.1494C15.3049 11.6563 14.8943 12.0661 14.3883 12.0661C13.8823 12.0661 13.4679 11.6563 13.4679 11.1494C13.4679 10.6425 13.874 10.2327 14.38 10.2327H14.3883ZM10.7135 10.2327C11.2195 10.2327 11.6302 10.6425 11.6302 11.1494C11.6302 11.6563 11.2195 12.0661 10.7135 12.0661C10.2075 12.0661 9.7932 11.6563 9.7932 11.1494C9.7932 10.6425 10.1984 10.2327 10.7053 10.2327H10.7135ZM7.03844 10.2327C7.54444 10.2327 7.9551 10.6425 7.9551 11.1494C7.9551 11.6563 7.54444 12.0661 7.03844 12.0661C6.53244 12.0661 6.1181 11.6563 6.1181 11.1494C6.1181 10.6425 6.52419 10.2327 7.03019 10.2327H7.03844Z" fill="white"/>
</svg>
