<svg width="18" height="18" viewBox="0 0 18 18" fill="none" xmlns="http://www.w3.org/2000/svg">
<path d="M13.4389 10.74C13.2447 10.9283 13.1554 11.2005 13.1997 11.4675L13.8664 15.1575C13.9227 15.4703 13.7907 15.7868 13.5289 15.9675C13.2724 16.155 12.9312 16.1775 12.6514 16.0275L9.32966 14.295C9.21416 14.2335 9.08591 14.2005 8.95466 14.1968H8.75141C8.68091 14.2073 8.61191 14.2298 8.54891 14.2643L5.22641 16.005C5.06216 16.0875 4.87616 16.1168 4.69391 16.0875C4.24991 16.0035 3.95366 15.5805 4.02641 15.1343L4.69391 11.4443C4.73816 11.175 4.64891 10.9013 4.45466 10.71L1.74641 8.08505C1.51991 7.8653 1.44116 7.5353 1.54466 7.23755C1.64516 6.94055 1.90166 6.7238 2.21141 6.67505L5.93891 6.1343C6.22241 6.10505 6.47141 5.93255 6.59891 5.67755L8.24141 2.31005C8.28041 2.23505 8.33066 2.16605 8.39141 2.10755L8.45891 2.05505C8.49416 2.01605 8.53466 1.9838 8.57966 1.95755L8.66141 1.92755L8.78891 1.87505H9.10466C9.38666 1.9043 9.63491 2.07305 9.76466 2.32505L11.4289 5.67755C11.5489 5.9228 11.7822 6.09305 12.0514 6.1343L15.7789 6.67505C16.0939 6.72005 16.3572 6.93755 16.4614 7.23755C16.5597 7.5383 16.4749 7.8683 16.2439 8.08505L13.4389 10.74Z" fill="#FFC000"/>
</svg>
