<svg width="12" height="12" viewBox="0 0 12 12" fill="none" xmlns="http://www.w3.org/2000/svg">
<mask id="path-1-outside-1_2_168" maskUnits="userSpaceOnUse" x="0.00012207" y="1.50014" width="12" height="10" fill="black">
<rect fill="white" x="0.00012207" y="1.50014" width="12" height="10"/>
<path fill-rule="evenodd" clip-rule="evenodd" d="M4.04464 2.50071L4.2798 2.50101C4.32 2.50107 4.36066 2.50113 4.40168 2.50119L4.65161 2.5016C5.20001 2.50253 5.78413 2.50382 6.22931 2.50474L6.42428 2.50514C6.45492 2.5052 6.48458 2.50526 6.51318 2.50532C7.63818 2.42632 8.65368 3.26132 8.74418 4.38182C8.74502 4.39331 8.74575 4.45853 8.74637 4.57717L9.78428 3.72717C10.0863 3.47967 10.4928 3.43117 10.8453 3.59767C11.1978 3.76517 11.4168 4.11117 11.4163 4.50117L11.4103 8.17567C11.4098 8.56567 11.1903 8.91167 10.8383 9.07767C10.7003 9.14317 10.5543 9.17467 10.4093 9.17467C10.1838 9.17467 9.96128 9.09717 9.77778 8.94667L8.7487 8.09278C8.74869 8.10725 8.74868 8.12176 8.74868 8.13632C8.76968 8.66432 8.58168 9.17282 8.21868 9.56782C7.83718 9.98332 7.31118 10.2248 6.73818 10.2483C6.72846 10.249 6.67369 10.2495 6.58382 10.2498L6.38629 10.2501C6.30924 10.2502 6.22169 10.2502 6.1258 10.2501L5.70283 10.2497C5.66472 10.2497 5.62601 10.2496 5.58676 10.2496L5.34555 10.2492C4.77087 10.2482 4.12352 10.2467 3.62164 10.2456L3.4161 10.2452C3.35097 10.2451 3.28945 10.2449 3.23218 10.2448C3.17918 10.2488 3.12618 10.2508 3.07318 10.2508C2.01618 10.2513 1.09418 9.44132 1.00718 8.37882L1.0071 8.37774L1.00663 8.36783C1.0066 8.36675 1.00656 8.36556 1.00652 8.36424L1.00618 8.3485C1.00614 8.34626 1.0061 8.34385 1.00606 8.34125L1.00568 8.31213C1.00564 8.30821 1.00559 8.30405 1.00555 8.29963L1.00515 8.25237C1.00511 8.24624 1.00506 8.2398 1.00502 8.23303L1.00474 8.18837C1.0047 8.18023 1.00465 8.17173 1.00461 8.16285L1.0042 8.07235C1.00416 8.06107 1.00411 8.04936 1.00407 8.0372L1.00368 7.91543C1.00363 7.90048 1.00359 7.88503 1.00355 7.86907L1.00319 7.71126C1.00315 7.6921 1.00311 7.67238 1.00307 7.65208L1.00265 7.37988C1.00262 7.35472 1.00259 7.32891 1.00256 7.30245L1.00217 6.85411C1.00215 6.82066 1.00213 6.78646 1.00211 6.75151L1.00211 4.79254C1.00213 4.73313 1.00215 4.67273 1.00218 4.61132C0.978176 4.09582 1.16518 3.58382 1.53018 3.18532C1.91118 2.76932 2.43668 2.52682 3.01018 2.50232C3.0179 2.50176 3.05444 2.50134 3.11472 2.50104L3.2223 2.50067C3.24298 2.50062 3.26499 2.50057 3.28824 2.50054L3.93229 2.50059C3.96908 2.50063 4.00655 2.50067 4.04464 2.50071ZM6.54018 3.25432C5.9089 3.2534 5.13701 3.2523 4.47831 3.25158L4.13176 3.25123C4.07639 3.25118 4.02232 3.25113 3.96977 3.25109L3.10023 3.25111C3.06751 3.25126 3.04634 3.25148 3.03818 3.25182C2.66918 3.26732 2.32868 3.42382 2.08318 3.69182C1.85418 3.94232 1.73618 4.26232 1.75168 4.59432L1.75209 6.5258C1.75211 6.56844 1.75213 6.61078 1.75216 6.65278L1.75262 7.2498C1.75265 7.28695 1.75269 7.32348 1.75273 7.35933L1.75299 7.56587C1.75304 7.59879 1.75308 7.63093 1.75313 7.66223L1.75362 7.91971C1.75415 8.15152 1.75482 8.30187 1.75568 8.33082C1.81268 9.02332 2.46168 9.55282 3.20468 9.49582C3.28325 9.49593 3.36398 9.49606 3.44639 9.49618L3.69816 9.49659C3.91135 9.49694 4.13197 9.49731 4.35244 9.49768L4.61645 9.49812C4.74793 9.49834 4.87827 9.49855 5.00581 9.49875L5.2567 9.49913C5.29774 9.49919 5.33834 9.49924 5.37845 9.4993L5.61273 9.49961C5.65063 9.49965 5.68791 9.4997 5.72452 9.49974L6.60725 9.49972C6.66499 9.49952 6.70126 9.49922 6.71218 9.49882C7.07968 9.48382 7.42068 9.32782 7.66618 9.06032C7.89568 8.81082 8.01368 8.49082 7.99918 8.16032L7.99874 8.15207L7.99865 5.73397C7.99862 5.6947 7.9986 5.65593 7.99858 5.61773L7.9982 5.18981C7.99816 5.15699 7.99812 5.12495 7.99808 5.09375L7.99765 4.83705C7.99749 4.76002 7.99731 4.69203 7.99712 4.63455L7.99669 4.53406C7.99639 4.477 7.99606 4.44041 7.99568 4.42782C7.93918 3.73182 7.28718 3.19582 6.54018 3.25432ZM10.2593 4.30767L8.74849 5.54032C8.74855 5.60175 8.7486 5.66561 8.74865 5.73189L8.74897 6.98571L10.2533 8.36717C10.3638 8.45717 10.4748 8.42017 10.5178 8.39917C10.5608 8.37917 10.6603 8.31667 10.6603 8.17467L10.6663 4.50017C10.6668 4.35817 10.5668 4.29567 10.5238 4.27517C10.4813 4.25517 10.3688 4.21767 10.2593 4.30767Z"/>
</mask>
<path fill-rule="evenodd" clip-rule="evenodd" d="M4.04464 2.50071L4.2798 2.50101C4.32 2.50107 4.36066 2.50113 4.40168 2.50119L4.65161 2.5016C5.20001 2.50253 5.78413 2.50382 6.22931 2.50474L6.42428 2.50514C6.45492 2.5052 6.48458 2.50526 6.51318 2.50532C7.63818 2.42632 8.65368 3.26132 8.74418 4.38182C8.74502 4.39331 8.74575 4.45853 8.74637 4.57717L9.78428 3.72717C10.0863 3.47967 10.4928 3.43117 10.8453 3.59767C11.1978 3.76517 11.4168 4.11117 11.4163 4.50117L11.4103 8.17567C11.4098 8.56567 11.1903 8.91167 10.8383 9.07767C10.7003 9.14317 10.5543 9.17467 10.4093 9.17467C10.1838 9.17467 9.96128 9.09717 9.77778 8.94667L8.7487 8.09278C8.74869 8.10725 8.74868 8.12176 8.74868 8.13632C8.76968 8.66432 8.58168 9.17282 8.21868 9.56782C7.83718 9.98332 7.31118 10.2248 6.73818 10.2483C6.72846 10.249 6.67369 10.2495 6.58382 10.2498L6.38629 10.2501C6.30924 10.2502 6.22169 10.2502 6.1258 10.2501L5.70283 10.2497C5.66472 10.2497 5.62601 10.2496 5.58676 10.2496L5.34555 10.2492C4.77087 10.2482 4.12352 10.2467 3.62164 10.2456L3.4161 10.2452C3.35097 10.2451 3.28945 10.2449 3.23218 10.2448C3.17918 10.2488 3.12618 10.2508 3.07318 10.2508C2.01618 10.2513 1.09418 9.44132 1.00718 8.37882L1.0071 8.37774L1.00663 8.36783C1.0066 8.36675 1.00656 8.36556 1.00652 8.36424L1.00618 8.3485C1.00614 8.34626 1.0061 8.34385 1.00606 8.34125L1.00568 8.31213C1.00564 8.30821 1.00559 8.30405 1.00555 8.29963L1.00515 8.25237C1.00511 8.24624 1.00506 8.2398 1.00502 8.23303L1.00474 8.18837C1.0047 8.18023 1.00465 8.17173 1.00461 8.16285L1.0042 8.07235C1.00416 8.06107 1.00411 8.04936 1.00407 8.0372L1.00368 7.91543C1.00363 7.90048 1.00359 7.88503 1.00355 7.86907L1.00319 7.71126C1.00315 7.6921 1.00311 7.67238 1.00307 7.65208L1.00265 7.37988C1.00262 7.35472 1.00259 7.32891 1.00256 7.30245L1.00217 6.85411C1.00215 6.82066 1.00213 6.78646 1.00211 6.75151L1.00211 4.79254C1.00213 4.73313 1.00215 4.67273 1.00218 4.61132C0.978176 4.09582 1.16518 3.58382 1.53018 3.18532C1.91118 2.76932 2.43668 2.52682 3.01018 2.50232C3.0179 2.50176 3.05444 2.50134 3.11472 2.50104L3.2223 2.50067C3.24298 2.50062 3.26499 2.50057 3.28824 2.50054L3.93229 2.50059C3.96908 2.50063 4.00655 2.50067 4.04464 2.50071ZM6.54018 3.25432C5.9089 3.2534 5.13701 3.2523 4.47831 3.25158L4.13176 3.25123C4.07639 3.25118 4.02232 3.25113 3.96977 3.25109L3.10023 3.25111C3.06751 3.25126 3.04634 3.25148 3.03818 3.25182C2.66918 3.26732 2.32868 3.42382 2.08318 3.69182C1.85418 3.94232 1.73618 4.26232 1.75168 4.59432L1.75209 6.5258C1.75211 6.56844 1.75213 6.61078 1.75216 6.65278L1.75262 7.2498C1.75265 7.28695 1.75269 7.32348 1.75273 7.35933L1.75299 7.56587C1.75304 7.59879 1.75308 7.63093 1.75313 7.66223L1.75362 7.91971C1.75415 8.15152 1.75482 8.30187 1.75568 8.33082C1.81268 9.02332 2.46168 9.55282 3.20468 9.49582C3.28325 9.49593 3.36398 9.49606 3.44639 9.49618L3.69816 9.49659C3.91135 9.49694 4.13197 9.49731 4.35244 9.49768L4.61645 9.49812C4.74793 9.49834 4.87827 9.49855 5.00581 9.49875L5.2567 9.49913C5.29774 9.49919 5.33834 9.49924 5.37845 9.4993L5.61273 9.49961C5.65063 9.49965 5.68791 9.4997 5.72452 9.49974L6.60725 9.49972C6.66499 9.49952 6.70126 9.49922 6.71218 9.49882C7.07968 9.48382 7.42068 9.32782 7.66618 9.06032C7.89568 8.81082 8.01368 8.49082 7.99918 8.16032L7.99874 8.15207L7.99865 5.73397C7.99862 5.6947 7.9986 5.65593 7.99858 5.61773L7.9982 5.18981C7.99816 5.15699 7.99812 5.12495 7.99808 5.09375L7.99765 4.83705C7.99749 4.76002 7.99731 4.69203 7.99712 4.63455L7.99669 4.53406C7.99639 4.477 7.99606 4.44041 7.99568 4.42782C7.93918 3.73182 7.28718 3.19582 6.54018 3.25432ZM10.2593 4.30767L8.74849 5.54032C8.74855 5.60175 8.7486 5.66561 8.74865 5.73189L8.74897 6.98571L10.2533 8.36717C10.3638 8.45717 10.4748 8.42017 10.5178 8.39917C10.5608 8.37917 10.6603 8.31667 10.6603 8.17467L10.6663 4.50017C10.6668 4.35817 10.5668 4.29567 10.5238 4.27517C10.4813 4.25517 10.3688 4.21767 10.2593 4.30767Z" fill="#585CE5"/>
<path fill-rule="evenodd" clip-rule="evenodd" d="M4.04464 2.50071L4.2798 2.50101C4.32 2.50107 4.36066 2.50113 4.40168 2.50119L4.65161 2.5016C5.20001 2.50253 5.78413 2.50382 6.22931 2.50474L6.42428 2.50514C6.45492 2.5052 6.48458 2.50526 6.51318 2.50532C7.63818 2.42632 8.65368 3.26132 8.74418 4.38182C8.74502 4.39331 8.74575 4.45853 8.74637 4.57717L9.78428 3.72717C10.0863 3.47967 10.4928 3.43117 10.8453 3.59767C11.1978 3.76517 11.4168 4.11117 11.4163 4.50117L11.4103 8.17567C11.4098 8.56567 11.1903 8.91167 10.8383 9.07767C10.7003 9.14317 10.5543 9.17467 10.4093 9.17467C10.1838 9.17467 9.96128 9.09717 9.77778 8.94667L8.7487 8.09278C8.74869 8.10725 8.74868 8.12176 8.74868 8.13632C8.76968 8.66432 8.58168 9.17282 8.21868 9.56782C7.83718 9.98332 7.31118 10.2248 6.73818 10.2483C6.72846 10.249 6.67369 10.2495 6.58382 10.2498L6.38629 10.2501C6.30924 10.2502 6.22169 10.2502 6.1258 10.2501L5.70283 10.2497C5.66472 10.2497 5.62601 10.2496 5.58676 10.2496L5.34555 10.2492C4.77087 10.2482 4.12352 10.2467 3.62164 10.2456L3.4161 10.2452C3.35097 10.2451 3.28945 10.2449 3.23218 10.2448C3.17918 10.2488 3.12618 10.2508 3.07318 10.2508C2.01618 10.2513 1.09418 9.44132 1.00718 8.37882L1.0071 8.37774L1.00663 8.36783C1.0066 8.36675 1.00656 8.36556 1.00652 8.36424L1.00618 8.3485C1.00614 8.34626 1.0061 8.34385 1.00606 8.34125L1.00568 8.31213C1.00564 8.30821 1.00559 8.30405 1.00555 8.29963L1.00515 8.25237C1.00511 8.24624 1.00506 8.2398 1.00502 8.23303L1.00474 8.18837C1.0047 8.18023 1.00465 8.17173 1.00461 8.16285L1.0042 8.07235C1.00416 8.06107 1.00411 8.04936 1.00407 8.0372L1.00368 7.91543C1.00363 7.90048 1.00359 7.88503 1.00355 7.86907L1.00319 7.71126C1.00315 7.6921 1.00311 7.67238 1.00307 7.65208L1.00265 7.37988C1.00262 7.35472 1.00259 7.32891 1.00256 7.30245L1.00217 6.85411C1.00215 6.82066 1.00213 6.78646 1.00211 6.75151L1.00211 4.79254C1.00213 4.73313 1.00215 4.67273 1.00218 4.61132C0.978176 4.09582 1.16518 3.58382 1.53018 3.18532C1.91118 2.76932 2.43668 2.52682 3.01018 2.50232C3.0179 2.50176 3.05444 2.50134 3.11472 2.50104L3.2223 2.50067C3.24298 2.50062 3.26499 2.50057 3.28824 2.50054L3.93229 2.50059C3.96908 2.50063 4.00655 2.50067 4.04464 2.50071ZM6.54018 3.25432C5.9089 3.2534 5.13701 3.2523 4.47831 3.25158L4.13176 3.25123C4.07639 3.25118 4.02232 3.25113 3.96977 3.25109L3.10023 3.25111C3.06751 3.25126 3.04634 3.25148 3.03818 3.25182C2.66918 3.26732 2.32868 3.42382 2.08318 3.69182C1.85418 3.94232 1.73618 4.26232 1.75168 4.59432L1.75209 6.5258C1.75211 6.56844 1.75213 6.61078 1.75216 6.65278L1.75262 7.2498C1.75265 7.28695 1.75269 7.32348 1.75273 7.35933L1.75299 7.56587C1.75304 7.59879 1.75308 7.63093 1.75313 7.66223L1.75362 7.91971C1.75415 8.15152 1.75482 8.30187 1.75568 8.33082C1.81268 9.02332 2.46168 9.55282 3.20468 9.49582C3.28325 9.49593 3.36398 9.49606 3.44639 9.49618L3.69816 9.49659C3.91135 9.49694 4.13197 9.49731 4.35244 9.49768L4.61645 9.49812C4.74793 9.49834 4.87827 9.49855 5.00581 9.49875L5.2567 9.49913C5.29774 9.49919 5.33834 9.49924 5.37845 9.4993L5.61273 9.49961C5.65063 9.49965 5.68791 9.4997 5.72452 9.49974L6.60725 9.49972C6.66499 9.49952 6.70126 9.49922 6.71218 9.49882C7.07968 9.48382 7.42068 9.32782 7.66618 9.06032C7.89568 8.81082 8.01368 8.49082 7.99918 8.16032L7.99874 8.15207L7.99865 5.73397C7.99862 5.6947 7.9986 5.65593 7.99858 5.61773L7.9982 5.18981C7.99816 5.15699 7.99812 5.12495 7.99808 5.09375L7.99765 4.83705C7.99749 4.76002 7.99731 4.69203 7.99712 4.63455L7.99669 4.53406C7.99639 4.477 7.99606 4.44041 7.99568 4.42782C7.93918 3.73182 7.28718 3.19582 6.54018 3.25432ZM10.2593 4.30767L8.74849 5.54032C8.74855 5.60175 8.7486 5.66561 8.74865 5.73189L8.74897 6.98571L10.2533 8.36717C10.3638 8.45717 10.4748 8.42017 10.5178 8.39917C10.5608 8.37917 10.6603 8.31667 10.6603 8.17467L10.6663 4.50017C10.6668 4.35817 10.5668 4.29567 10.5238 4.27517C10.4813 4.25517 10.3688 4.21767 10.2593 4.30767Z" stroke="#585CE5" stroke-width="0.6" mask="url(#path-1-outside-1_2_168)"/>
</svg>
