<svg width="20" height="20" viewBox="0 0 20 20" fill="none" xmlns="http://www.w3.org/2000/svg">
<path fill-rule="evenodd" clip-rule="evenodd" d="M18.75 10C18.75 14.8325 14.8325 18.75 10 18.75C5.16751 18.75 1.25 14.8325 1.25 10C1.25 5.16751 5.16751 1.25 10 1.25C14.8325 1.25 18.75 5.16751 18.75 10ZM13.0775 16.8416C12.1385 17.2646 11.0967 17.5 10 17.5C8.18942 17.5 6.52869 16.8584 5.23275 15.7902C6.5809 13.5279 8.74928 11.8127 11.3269 11.0538C12.0672 12.9113 12.6559 14.8457 13.0775 16.8416ZM14.2179 16.2024C13.8026 14.3345 13.2456 12.5199 12.559 10.7705C13.1306 10.6748 13.7177 10.625 14.3164 10.625C15.3979 10.625 16.4404 10.7873 17.4216 11.0885C17.113 13.2114 15.915 15.0461 14.2179 16.2024ZM17.4976 9.80832C16.4849 9.52587 15.4178 9.375 14.3164 9.375C13.5486 9.375 12.7979 9.44824 12.071 9.58809C11.8814 9.1505 11.6836 8.71732 11.4777 8.28873C13.114 7.56242 14.6262 6.60738 15.9736 5.46431C16.8954 6.67651 17.4567 8.17779 17.4976 9.80832ZM15.1366 4.53508C13.8717 5.60364 12.4523 6.49472 10.9167 7.17004C10.1061 5.61991 9.18856 4.13458 8.17399 2.72385C8.7585 2.57763 9.37018 2.5 10 2.5C11.9876 2.5 13.7946 3.27314 15.1366 4.53508ZM6.93908 3.15101C4.73734 4.1365 3.09754 6.1525 2.63319 8.58552C3.05986 8.61687 3.49091 8.63283 3.92579 8.63283C5.96824 8.63283 7.92816 8.28074 9.74838 7.63385C8.92165 6.06696 7.9816 4.56905 6.93908 3.15101ZM2.50191 9.8292C2.50064 9.88598 2.5 9.94292 2.5 10C2.5 11.87 3.1844 13.5802 4.31638 14.8937C5.80752 12.5308 8.11375 10.7325 10.8408 9.89446C10.6724 9.51205 10.4975 9.13316 10.3162 8.75792C8.32298 9.48568 6.17061 9.88283 3.92579 9.88283C3.44683 9.88283 2.97198 9.86474 2.50191 9.8292Z" fill="#E84C88"/>
</svg>
