<svg width="22" height="22" viewBox="0 0 22 22" fill="none" xmlns="http://www.w3.org/2000/svg">
<path fill-rule="evenodd" clip-rule="evenodd" d="M3.20907 12.6382V12.4375C3.23852 11.8436 3.42886 11.2681 3.76047 10.7705C4.31244 10.1727 4.69029 9.44011 4.85438 8.64964C4.85438 8.0387 4.85438 7.41904 4.90775 6.8081C5.18345 3.86688 8.09165 1.83333 10.9643 1.83333H11.0354C13.9081 1.83333 16.8163 3.86688 17.1009 6.8081C17.1542 7.41904 17.1009 8.0387 17.1453 8.64964C17.3116 9.44194 17.6891 10.1768 18.2392 10.7792C18.5733 11.2724 18.764 11.8458 18.7906 12.4375V12.6295C18.8105 13.4274 18.5357 14.2054 18.0169 14.8201C17.3314 15.5388 16.4011 15.986 15.4022 16.0769C12.4731 16.3911 9.51776 16.3911 6.58863 16.0769C5.59086 15.9821 4.66192 15.5356 3.97392 14.8201C3.46315 14.2049 3.19203 13.4315 3.20907 12.6382Z" stroke="#9AA5B6" stroke-width="1.5" stroke-linecap="round" stroke-linejoin="round"/>
<path d="M8.75867 19.1141C9.21634 19.6886 9.88842 20.0603 10.6262 20.1472C11.3639 20.234 12.1065 20.0287 12.6896 19.5767C12.869 19.443 13.0303 19.2876 13.1699 19.1141" stroke="#9AA5B6" stroke-width="1.5" stroke-linecap="round" stroke-linejoin="round"/>
</svg>
